# xmcd
#
# Track frame offsets:
#	150
#	14562
#	34040
#	56425
#	70252
#	92542
#	109475
#	124847
#	142040
#	163387
#	184167
#	203800
#	223700
#	243742
#	269862
#	294267
#
# Disc length: 4423 seconds
#
# Revision: 0
# Processed by: cddbd v1.5.2PL0 Copyright (c) Steve Scherf et al.
# Submitted via: EZCDAudioConverter 2.1.7.1
#
DISCID=03114510
DTITLE=David Bowie - Sound and Vision 4/4
DYEAR=1900
DGENRE=
TTITLE0=Blue Jean
TTITLE1=Time Will Crawl
TTITLE2=Baby Can Dance
TTITLE3=Amazing
TTITLE4=I Can't Read
TTITLE5=Shopping For Girls
TTITLE6=Goodbye Mr. Ed
TTITLE7=Amlapura
TTITLE8=You've Been Around
TTITLE9=Nite Flights [Moodswings Back To Basics Remix Radio Edit]
TTITLE10=Pallas Athena [Gone Midnight Mix]
TTITLE11=Jump They Say
TTITLE12=Buddha Of Suburbia
TTITLE13=Dead Against It
TTITLE14=South Horizon
TTITLE15=Pallas Athena [Live]
EXTD=
EXTT0=
EXTT1=
EXTT2=
EXTT3=
EXTT4=
EXTT5=
EXTT6=
EXTT7=
EXTT8=
EXTT9=
EXTT10=
EXTT11=
EXTT12=
EXTT13=
EXTT14=
EXTT15=
PLAYORDER=
